<?xml version="1.0" encoding="UTF-8"?>
<svg id="Layer_1" xmlns="http://www.w3.org/2000/svg" viewBox="0 0 648 648">
  <defs>
    <style>
      .cls-1 {
        fill: #fff;
      }
    </style>
  </defs>
  <circle class="cls-1" cx="324" cy="324" r="324"/>
  <path d="M324,18C155.27,18,18,155.27,18,324s137.27,306,306,306,306-137.27,306-306S492.73,18,324,18ZM324,54.6c103.75,0,193.98,58.96,238.97,145.13h-93.09v-6.09c1.34-.24,2.36-1.4,2.36-2.81v-14.58c0-1.58-1.28-2.86-2.86-2.86h-.41c-.57-2.56-1.5-4.94-3.01-6.23-.92-.79-1.84-.98-2.5-1.02l-19.64.35c-.9.32-1.97,1.02-2.49,1.55-1.3,1.33-2.1,3.29-2.6,5.35h-1.59c-1.58,0-2.86,1.28-2.86,2.86v14.58c0,1.58,1.28,2.86,2.86,2.86h.9v6.04h-81.24c-3.7-8.67,3.12-12.21-3.51-23.77-.77-4.91.33-9.65,0-14.56-.96-4.69,3.86-7.83,3.38-12.47-.1-1.13.1-1.91,1.19-2.49,6.49-9.77-17.64,1.05-21.46.79,1.86-3.36.44-4.35-2.98-4.33-3.34-.16-6.16-2.23-9.8-1.18,1.3,3.42-6.08-1.56-7.72-.05-4.51,1.19-1.32,7.05,2.15,6.84,3.79,3.8,1.68,7.9,1.21,12.42-.2,3.51.14,14.79-3.26,15.58-2.12,7.07-4.29,14.96-6.1,23.21h-99.56v-6.09c1.34-.24,2.36-1.4,2.36-2.81v-14.58c0-1.58-1.28-2.86-2.86-2.86h-.41c-.57-2.56-1.5-4.94-3.01-6.23-.92-.79-1.84-.98-2.5-1.02l-19.64.35c-.9.32-1.97,1.02-2.49,1.55-1.3,1.33-2.1,3.29-2.6,5.35h-1.59c-1.58,0-2.86,1.28-2.86,2.86v14.58c0,1.58,1.28,2.86,2.86,2.86h.9v6.04h-93.48C130.02,113.57,220.25,54.6,324,54.6ZM438.03,494.46v36.64h-45.39c-4.38-13.19-1.03-28.63-6.6-41.69-3.24-15.04-11.18-28.71-14.65-43.87l-.47-2.28c-13.29-18.06-7.37-17.79-12.33-35.93-3.03-12.68-7.09-25.27-6.25-38.45,12.92-36.7,4.96-74.68,3.22-112.54.98-11.05,2.3-25.77,2.29-39.32h80.19v277.44h-.02ZM306.77,249.87c-.56,18.55-7.8,36.89-11.63,54.98-3.65,5.91-4.72,14.64-3.35,21.99.26,6.95-.37,14.01,2.68,20.36,1.26.94-.31,2.25.25,3.46.66,2.11-1.01,3.82-.68,5.93-.83,4.26,1.5,8.16,1.21,12.36-1.15,19.3-11.93,35.75-10.9,55.33-.03,7.22-7.48,12.84-9.33,19.98-1.96,6.38-2.5,12.71-5,18.84-9.82,17.26-12.8,38.59-15.43,57.74.76,1.46-1.34,1.75-1.9,2.37-.4,1.44-.53,3.16-1.57,4.21-.89,1.09-2.97,2.32-4.17,3.68h-36.6V217.02h96.48c-1.47,11.22-1.81,22.52-.06,32.85ZM330.9,217.02h2.64c-.98,10.96-1.76,21.96-2.64,32.55-.32-.32-.44-.68-.37-1.1-.52-10.41-.04-20.94.37-31.44ZM330.28,179.28c-3.69-5.58,2.11-11.22,1.73-16.92-.5-3.09,1.93-9.2,5.49-8.63,2.27.67.82,4.48,3.08,5.73,2.6,2.57.09,6.47,1.3,9.6.29,1.09-1.18,1.2-1.81,1.73-2.07,9.18-3.57,18.95-4.76,28.95h-3.95c.02-6.88-.23-13.71-1.07-20.46ZM357.23,347.68l-.47,3.25c-.28-1.22.35-2.17.47-3.25ZM54.6,324c0-37.99,7.92-74.17,22.18-106.98h101.74v314.08h0s-26.61,0-26.61,0c-59.41-49.46-97.3-123.93-97.3-207.1ZM270.86,531.1s.03-.05.05-.07c2.45-1.59,5.09-.04,7.74-.55,3.89-2.41-6.4-8.7-9.26-8.2-.49.02-1.61-.26-1.46-.87.73-1.54-2.3-1.24-1.12-3.25,3.14-13.84,7.91-29.39,14.01-42.11,8.84-4.67,10.68-15.33,17.06-21.6,4.22-.3,10.43-12.72,13.11-6.73-.24,2.87,1.97,5.08.19,7.97-3.87-3.07-5.22,4.7-2.64,6.64-1.41,52.63,54.31,18.16,29.01-14.67,2.98,1.26,6.41,4.85,9,7.25,8.43,3.5,7.88,14.59,14.98,19.83,7.03,4.39,8.52,12.07,9.69,19.68.86,7.17,15.42,31.06,2.56,31.54-3.23,1.54-8.25,2.72-10.58,5.1,0,.02,0,.04,0,.06h-92.34ZM496.09,531.1h-26.23s.02,0,.02,0V217.02h101.34c14.25,32.81,22.18,68.98,22.18,106.98,0,83.17-37.89,157.65-97.31,207.1Z"/>
</svg>