<svg width="512" height="512" viewBox="0 0 512 512" fill="none" xmlns="http://www.w3.org/2000/svg">
  <rect width="512" height="512" fill="#1A1A1A"/>
  <path d="M106 146H126L166 246L206 146H226V266H211V171L173 266H159L121 171V266H106V146Z" fill="white"/>
  <path d="M246 146H291C303 146 312.667 148.667 320 154C327.333 159.333 331 167.333 331 178C331 185.333 329 191.333 325 196C321 200.667 316.333 203.667 311 205C317.667 206.333 323 209.667 327 215C331 220.333 333 227 333 235C333 246.333 329.333 255 322 261C314.667 267 304.667 270 292 270H246V146ZM261 196H289C296.333 196 302 194.333 306 191C310 187.667 312 183 312 177C312 171 310 166.667 306 164C302 161.333 296.333 160 289 160H261V196ZM261 256H291C298.333 256 304 254.333 308 251C312 247.667 314 242.667 314 236C314 229.333 312 224.333 308 221C304 217.667 298.333 216 291 216H261V256Z" fill="white"/>
  <path d="M349 146H364V256H426V266H349V146Z" fill="white"/>
  <path d="M106 286H126L166 386L206 286H226V406H211V311L173 406H159L121 311V406H106V286Z" fill="white"/>
  <path d="M246 286H291C303 286 312.667 288.667 320 294C327.333 299.333 331 307.333 331 318C331 325.333 329 331.333 325 336C321 340.667 316.333 343.667 311 345C317.667 346.333 323 349.667 327 355C331 360.333 333 367 333 375C333 386.333 329.333 395 322 401C314.667 407 304.667 410 292 410H246V286ZM261 336H289C296.333 336 302 334.333 306 331C310 327.667 312 323 312 317C312 311 310 306.667 306 304C302 301.333 296.333 300 289 300H261V336ZM261 396H291C298.333 396 304 394.333 308 391C312 387.667 314 382.667 314 376C314 369.333 312 364.333 308 361C304 357.667 298.333 356 291 356H261V396Z" fill="white"/>
  <path d="M349 286H364V396H426V406H349V286Z" fill="white"/>
</svg> 