<?xml version="1.0" encoding="UTF-8"?>
<svg id="Layer_1" xmlns="http://www.w3.org/2000/svg" viewBox="0 0 368.74 102.43">
  <defs>
    <style>
      .cls-1 {
        fill: #fff;
      }
    </style>
  </defs>
  <g>
    <path class="cls-1" d="M368.74,102.33c-3.64-.01-7.28-.07-10.91-.01-.95.01-1.54-.35-2.14-1-3.18-3.42-6.4-6.82-9.68-10.3-2.11,2.41-4.18,4.79-6.25,7.15-1.18,1.35-2.14,3.21-3.64,3.9-1.49.69-3.53.21-5.32.22-2.3.01-4.61,0-7.23,0,5.44-5.91,10.68-11.59,16.02-17.38-5.43-5.48-10.83-10.94-16.46-16.61,2.47,0,4.62,0,6.76,0,1.88,0,3.76.06,5.64-.02,1.06-.05,1.77.32,2.47,1.09,2.66,2.91,5.39,5.77,8.17,8.73,1.95-2.17,4.04-4.12,5.67-6.41,1.97-2.75,4.32-3.84,7.68-3.44,2.41.29,4.87.06,7.31.07.07,0,.14.04.43.13-4.93,5.21-9.8,10.35-14.97,15.81,1.25,1.12,2.52,2.15,3.68,3.3,4.12,4.08,8.21,8.19,12.31,12.29.14.14.32.23.47.34v2.16Z"/>
    <path class="cls-1" d="M176.98,60.36c-4,0-7.99.02-11.99-.01-.95,0-1.92-.08-2.86-.25-3.4-.59-5.16-2.37-5.52-5.81-.21-2.06-.22-4.15-.22-6.22,0-4.83-.14-9.68.14-14.5.28-4.92,2.62-6.94,7.57-7.08,2.48-.07,4.96-.05,7.43-.05,5.96,0,11.91.01,17.87.05.91,0,1.84.11,2.74.29,3.1.61,4.83,2.5,5.23,5.73.16,1.3.21,2.63.21,3.94.02,5.04.02,10.07,0,15.11,0,1.03-.07,2.08-.25,3.1-.61,3.62-2.82,5.51-6.92,5.63-4.47.13-8.95.03-13.43.03,0,.01,0,.03,0,.04ZM187.29,35.01h-20.58v16.46h20.58v-16.46Z"/>
    <path class="cls-1" d="M72.79,48.69v11.57h-10.01V26.54c.2-.03.39-.09.57-.09,9.48,0,18.96-.02,28.44.06,2.79.02,5.34.84,6.64,3.66.39.85.68,1.83.7,2.77.08,3.12.18,6.25-.02,9.35-.24,3.78-2.51,5.88-6.33,6.29-.51.05-1.02.11-1.85.2,4.75,3.89,9.29,7.61,14.01,11.47-.49.05-.77.11-1.06.11-4.32,0-8.64.03-12.96-.03-.6,0-1.32-.31-1.77-.72-3.54-3.24-7.04-6.52-10.5-9.84-.81-.78-1.61-1.21-2.75-1.1-.98.09-1.98.02-3.12.02ZM72.85,40.41c1.66,0,3.21,0,4.77,0,3.32,0,6.63,0,9.95,0,1.62,0,1.62,0,1.63-1.57,0-.68,0-1.36,0-2.04,0-1.95,0-2.01-1.93-2.02-4.55-.03-9.11-.01-13.66,0-.23,0-.46.05-.74.08v5.56Z"/>
    <path class="cls-1" d="M219.19,41.2v19.08h-9.46V26.45c2.25,0,4.44-.03,6.63.03.37.01.77.37,1.09.64,7.03,5.87,14.05,11.74,21.07,17.62.29.25.6.47,1.07.84v-19.04h9.44v33.82c-2.29,0-4.52.03-6.75-.03-.33,0-.69-.36-.99-.61-7.13-5.99-14.25-11.99-21.38-17.99-.15-.13-.32-.23-.73-.53Z"/>
    <path class="cls-1" d="M284.94,87.5v-19.11h9.34v33.88c-2.22,0-4.44.05-6.67-.04-.43-.02-.87-.52-1.26-.85-6.89-5.79-13.77-11.58-20.65-17.37-.32-.27-.66-.54-1.21-.98v19.19h-9.42v-33.91c2.19,0,4.37-.03,6.56.03.38.01.78.37,1.1.64,7.03,5.87,14.05,11.75,21.07,17.63.31.26.62.5,1.14.91Z"/>
    <path class="cls-1" d="M219.99,76.56v3.89h14.13v8.28h-14.1v4.72h24.61v8.77h-34.79v-33.83h34.51v8.18h-24.37Z"/>
    <path class="cls-1" d="M167.14,102.22h-10.12v-33.87h10.09v11.86h19.5v-11.85h10.2v33.83h-10.16v-13.2h-19.52v13.22Z"/>
    <path class="cls-1" d="M307.3,68.35h10.01v33.85h-10.01v-33.85Z"/>
    <path class="cls-1" d="M110.85,60.29V26.52h10.11v33.77h-10.11Z"/>
  </g>
  <path class="cls-1" d="M188.2,11.56c-.08-.19-.25-.43-.38-.54-.99-.85-3.37-.72-3.56-.71h-35.13c-.72-.73-1.66-1.24-2.71-1.41v-4.27c0-.9-.14-3.48-1.72-4.34-.4-.22-.81-.27-1.1-.29l-8.62.1c-.4.09-.87.28-1.09.43-1.74,1.13-1.47,3.87-1.44,4.09v4.21c-1.23.05-2.32.61-3.08,1.48h-29.71c-14.26-.01-28.51-.01-42.77-.01-.81-.88-1.92-1.44-3.18-1.56v-3.37c0-.89-.14-3.42-1.72-4.27-.4-.22-.81-.27-1.1-.28l-8.62.1c-.4.09-.87.28-1.09.43-1.74,1.11-1.47,3.81-1.44,4.03v3.38c-1.13.14-2.11.71-2.8,1.55H4.52c-.88,0-3.4.07-4.24.84-.21.2-.27.4-.28.54l.1,4.24c.09.19.28.43.42.54,1.11.85,3.79.72,4,.71h31.7c.53,1.52,1.88,2.64,3.52,2.85v81.05h13.97V20.07h.18c1.89,0,3.48-1.22,4.06-2.91h41.68c9.63.01,19.25.01,28.88.01.54,1.69,2.08,2.93,3.93,3v81.71h13.97V20.17c1.84-.08,3.37-1.31,3.9-2.99h33.94c.78,0,3.03-.07,3.77-.84.19-.2.24-.4.25-.54l-.08-4.24Z"/>
</svg>